<svg
  width="100%"
  height="100%"
  viewBox="0 0 19 21"
  fill="none"
  xmlns="http://www.w3.org/2000/svg"
>
  <path
    d="M17.75 6.51172L11.75 1.25172C11.2 0.75977 10.4879 0.487793 9.74997 0.487793C9.01204 0.487793 8.29999 0.75977 7.74997 1.25172L1.74997 6.51172C1.43234 6.7958 1.17887 7.14428 1.00644 7.53397C0.834016 7.92366 0.746585 8.34561 0.749973 8.77172V17.5117C0.749973 18.3074 1.06604 19.0704 1.62865 19.633C2.19126 20.1957 2.95432 20.5117 3.74997 20.5117H15.75C16.5456 20.5117 17.3087 20.1957 17.8713 19.633C18.4339 19.0704 18.75 18.3074 18.75 17.5117V8.76172C18.7519 8.33729 18.6638 7.91727 18.4914 7.52941C18.3191 7.14155 18.0663 6.79468 17.75 6.51172ZM11.75 18.5117H7.74997V13.5117C7.74997 13.2465 7.85533 12.9922 8.04287 12.8046C8.2304 12.6171 8.48476 12.5117 8.74997 12.5117H10.75C11.0152 12.5117 11.2695 12.6171 11.4571 12.8046C11.6446 12.9922 11.75 13.2465 11.75 13.5117V18.5117ZM16.75 17.5117C16.75 17.7769 16.6446 18.0313 16.4571 18.2188C16.2695 18.4064 16.0152 18.5117 15.75 18.5117H13.75V13.5117C13.75 12.7161 13.4339 11.953 12.8713 11.3904C12.3087 10.8278 11.5456 10.5117 10.75 10.5117H8.74997C7.95432 10.5117 7.19126 10.8278 6.62865 11.3904C6.06604 11.953 5.74997 12.7161 5.74997 13.5117V18.5117H3.74997C3.48476 18.5117 3.2304 18.4064 3.04287 18.2188C2.85533 18.0313 2.74997 17.7769 2.74997 17.5117V8.76172C2.75015 8.61974 2.78057 8.47942 2.83919 8.3501C2.89781 8.22079 2.9833 8.10543 3.08997 8.01172L9.08997 2.76172C9.27246 2.60141 9.50706 2.51299 9.74997 2.51299C9.99288 2.51299 10.2275 2.60141 10.41 2.76172L16.41 8.01172C16.5166 8.10543 16.6021 8.22079 16.6608 8.3501C16.7194 8.47942 16.7498 8.61974 16.75 8.76172V17.5117Z"
    fill="currentColor"
  />
</svg>
